<svg xmlns="http://www.w3.org/2000/svg" viewBox="0 0 256 256" role="img" aria-labelledby="title desc">
  <title id="title">QuietWord Logo Mark</title>
  <desc id="desc">Calm rounded square with an open-book and guiding path symbol.</desc>
  <defs>
    <linearGradient id="bg" x1="0%" y1="0%" x2="100%" y2="100%">
      <stop offset="0%" stop-color="#3f7f7a" />
      <stop offset="100%" stop-color="#274e59" />
    </linearGradient>
    <linearGradient id="accent" x1="0%" y1="0%" x2="100%" y2="100%">
      <stop offset="0%" stop-color="#b6ddd8" />
      <stop offset="100%" stop-color="#d9eee7" />
    </linearGradient>
  </defs>

  <rect x="8" y="8" width="240" height="240" rx="56" fill="url(#bg)" />

  <path
    d="M58 86c22 0 38 6 54 18V180c-16-12-32-18-54-18V86Zm140 0c-22 0-38 6-54 18V180c16-12 32-18 54-18V86Z"
    fill="#f4fbf8"
    opacity="0.94"
  />

  <path d="M128 103v77" stroke="#dff3ed" stroke-width="8" stroke-linecap="round" opacity="0.9" />

  <path
    d="M80 110c11 0 20 2 30 7m66-7c-11 0-20 2-30 7"
    stroke="url(#accent)"
    stroke-width="5"
    stroke-linecap="round"
    opacity="0.85"
  />

  <circle cx="128" cy="64" r="9" fill="#d9eee7" />
</svg>
